<?xml version="1.0" encoding="utf-8"?>
<!-- Svg Vector Icons : http://www.onlinewebfonts.com/icon -->
<!DOCTYPE svg PUBLIC "-//W3C//DTD SVG 1.1//EN" "http://www.w3.org/Graphics/SVG/1.1/DTD/svg11.dtd">
<svg version="1.1" xmlns="http://www.w3.org/2000/svg" xmlns:xlink="http://www.w3.org/1999/xlink" x="0px" y="0px" viewBox="0 0 1000 1000" enable-background="new 0 0 1000 1000" xml:space="preserve">
<metadata> Svg Vector Icons : http://www.onlinewebfonts.com/icon </metadata>
<g><path d="M500,206c-179.1,0-318.8,112.1-490,293.9C157.5,655.3,281.4,794,500,794c218.6,0,379.4-175.6,490-290.8C876.7,368.2,716,206,500,206z M500,761.3c-194.1,0-311.3-120.4-445-261.4c159.1-165.9,285.5-261.3,445-261.3c188.7,0,336.3,136.1,446,263.2C838.1,614.4,691.9,761.3,500,761.3z"/><path d="M500,304c-108.1,0-196,87.9-196,196c0,108.1,87.9,196,196,196c108.1,0,196-87.9,196-196C696,391.9,608.1,304,500,304z M500,663.3c-90.1,0-163.3-73.3-163.3-163.3S409.9,336.7,500,336.7c90.1,0,163.3,73.3,163.3,163.3C663.3,590.1,590.1,663.3,500,663.3z"/><path d="M500,385.7c-63,0-114.3,51.3-114.3,114.3c0,63,51.3,114.3,114.3,114.3c63,0,114.3-51.3,114.3-114.3C614.3,437,563,385.7,500,385.7z M500,581.7c-45,0-81.7-36.6-81.7-81.7c0-45,36.6-81.7,81.7-81.7c45,0,81.7,36.6,81.7,81.7C581.7,545,545,581.7,500,581.7z"/></g>
</svg>